<?xml version="1.0" ?><svg viewBox="0 0 512 512" xmlns="http://www.w3.org/2000/svg"><title/><g id="Golden_retriever"><path d="M306.7674,236.0916c-7.2,0-5.814,7.73-7.3691,12.3927a18.9761,18.9761,0,0,1-36.5442-1.9528,11.0794,11.0794,0,0,0,1.8727-1.8633l14.4906-18.53c5.5441-7.0926.32-17.775-8.6656-17.775H241.569a10.9982,10.9982,0,0,0-8.6641,17.775l14.4922,18.53v.0016a11.1091,11.1091,0,0,0,1.7854,1.807c-3.6159,16.8446-26.9566,20.1781-35.21,5.1a18.96,18.96,0,0,1-1.9062-5.1613c-.4183-1.9683-.12-4.1227-.7787-6.02a6.46,6.46,0,0,0-9.2643-3.43c-6.7751,3.9644-1.7917,16.4787,1.1537,21.5168a32.08,32.08,0,0,0,21.0545,15.1412v33.365a31.7789,31.7789,0,0,0,63.5578,0v-33.365a32.0718,32.0718,0,0,0,21.0545-15.1412C311.8845,253.2811,317.9065,236.0916,306.7674,236.0916Zm-50.7562,89.875a19.0006,19.0006,0,0,1-18.98-18.9781V273.6237a31.8042,31.8042,0,0,0,18.98-12.0862,31.802,31.802,0,0,0,18.9781,12.086v33.365A19,19,0,0,1,256.0112,325.9666Z"/><path d="M425.2893,101.6682,360.2674,67.35a25.0212,25.0212,0,0,0-27.6484,2.6046,25.65,25.65,0,0,0-5.7777,6.559,70.9847,70.9847,0,0,0-29.4457-6.4277h-82.77A70.9989,70.9989,0,0,0,185.18,76.5125a25.6514,25.6514,0,0,0-5.7769-6.5584A25.0274,25.0274,0,0,0,151.7549,67.35L86.6643,101.7041C65.7968,113.0406,61.6148,140.1633,63.1232,161.73c.2466,3.5265.2117,7.7745,3.79,9.7025a6.387,6.387,0,0,0,5.7657.1562l7.4734-3.52c-1.5859,9.7422-1.9828,23.3188,3.6813,36.5766a6.4,6.4,0,0,0,8.4718,3.3406l6.67-2.9484c3.3829,11.9328,12.2391,35.6453,33.53,60.1406a6.399,6.399,0,0,0,11.011-2.5422l.1283-.4787c-.358,17.8014-23.1223,27.4795-23.3393,27.5709a6.3974,6.3974,0,0,0-3.3937,8.5875c.373.8137,8.3334,17.7256,25.3328,22.8365-3.01,15.2088-5.8971,52,26.88,81.72a6.4009,6.4009,0,0,0,8.9469-.3406l20.3375-21.4875c5.4812,14.6063,19.4812,40.8344,53.9375,65.4156.0921.0659.1994.0866.2937.1467a6.3154,6.3154,0,0,0,1.1967.5979c.1685.0631.33.1345.5014.1826a6.4027,6.4027,0,0,0,1.6906.2588h.07a6.4059,6.4059,0,0,0,1.691-.259c.1709-.0479.3315-.1192.4992-.1818a6.3046,6.3046,0,0,0,1.1989-.5987c.0941-.06.2013-.0808.2933-.1465,34.4563-24.5812,48.4563-50.8093,53.9391-65.4156l20.3375,21.4875a6.3979,6.3979,0,0,0,8.9469.3406c32.7941-29.7361,29.8861-66.5519,26.8744-81.7447,16.9316-5.1457,24.8594-21.9994,25.2318-22.8115a6.4114,6.4114,0,0,0-3.38-8.5828c-.2308-.0961-22.9861-9.7711-23.3509-27.5672l.1259.47a6.399,6.399,0,0,0,11.011,2.5422c21.2906-24.4953,30.1468-48.2078,33.53-60.1391l6.6687,2.9469a6.4011,6.4011,0,0,0,8.4734-3.3406c5.6641-13.2578,5.2672-26.8344,3.6813-36.5766l7.4734,3.52a6.3967,6.3967,0,0,0,5.7657-.1562c3.2814-1.7683,3.4335-5.2788,3.6993-8.5139a106.3038,106.3038,0,0,0,.2874-12.2088c-.3824-11.5809-2.5278-23.5794-8.3848-33.7214A40.0444,40.0444,0,0,0,425.2893,101.6682ZM134.4174,247.14c-20.4031-27.5047-24.6375-51.8219-24.68-52.0813a6.4038,6.4038,0,0,0-3.264-4.6062,6.4845,6.4845,0,0,0-5.6406-.23l-7.3188,3.2344c-4.4859-17.3688,2.0781-34.4219,2.1484-34.5985a6.4,6.4,0,0,0-8.6718-8.1625l-11.3047,5.3266c-.2547-12.4938,1.62-34.6688,17.02-43.0359L157.73,78.6682a12.5531,12.5531,0,0,1,17.9844,14.35V93.02Zm245.83,51.064c-3.4578,4.6766-9.7047,10.8954-18.7656,11.5532a6.3883,6.3883,0,0,0-5.242,9.2689c1.7461,6.0653,10.1643,40.9342-17.3549,69.9842l-23.5172-24.8469a6.4009,6.4009,0,0,0-10.97,3.4031c-.0547.3434-5.7826,33.761-48.334,65.7424-42.2172-31.756-48.28-65.4234-48.3332-65.7424a6.4008,6.4008,0,0,0-10.97-3.4031L173.2424,389.01c-29.5547-31.1984-17.6562-69.1266-17.0906-70.8594.0158-.0478.0176-.0965.0322-.1445a6.4054,6.4054,0,0,0,.1565-.7012c.0351-.189.0779-.3762.0959-.5648.0043-.0467.02-.0895.0232-.1364.0108-.1486-.0127-.29-.0121-.4373a6.4027,6.4027,0,0,0-.02-.7019c-.0217-.2045-.0664-.4-.1069-.5984-.0419-.2049-.08-.4086-.1412-.6077a6.2838,6.2838,0,0,0-.23-.5929c-.0773-.1834-.1509-.3661-.2449-.5414-.0986-.1834-.214-.3532-.3295-.5254-.1138-.1709-.225-.3412-.3552-.5008-.1268-.1549-.2682-.2938-.4086-.4363a6.2744,6.2744,0,0,0-.4582-.4375c-.16-.1329-.3331-.2459-.5057-.3629-.1684-.1141-.3326-.2305-.5137-.3289a6.3884,6.3884,0,0,0-.6345-.285c-.136-.0559-.2581-.1322-.4-.18-.0451-.015-.091-.0166-.1361-.0305a13.7841,13.7841,0,0,0-1.2875-.2568c-.0465-.0043-.0889-.02-.1357-.0236-8.97-.6516-15.2469-6.8907-18.7375-11.57,9.2109-5.3907,24.6734-17.2938,24.6734-36.4438V214.2651l31.6-117.9313a25.8957,25.8957,0,0,0,.8793-7.4791,58.1662,58.1662,0,0,1,25.6691-5.9693h82.77a58.1709,58.1709,0,0,1,25.6693,5.9682,25.8716,25.8716,0,0,0,.8791,7.4787l31.6016,117.9383v47.4726C355.5456,280.9151,371.0409,292.8229,380.2471,298.2041Zm56.0688-142.1906-11.286-5.3172a6.4,6.4,0,0,0-8.6718,8.1625c.075.1891,6.6953,17.1422,2.1546,34.6l-7.3218-3.2359a6.4,6.4,0,0,0-8.9063,4.8359c-.0437.2688-4.1484,24.4563-24.68,52.0875L336.3065,93.02c-2.7837-10.39,8.4445-19.3869,17.9859-14.3516l64.9547,34.2828C434.63,121.3088,436.544,143.5073,436.3159,156.0135Z"/><path d="M219.9356,172.9666v-10.139a14.4,14.4,0,0,0-28.8,0v10.139a14.4,14.4,0,0,0,28.8,0Z"/><path d="M306.5856,148.4276a14.4169,14.4169,0,0,0-14.4,14.4v10.139a14.4,14.4,0,1,0,28.8,0v-10.139A14.417,14.417,0,0,0,306.5856,148.4276Z"/></g></svg>