<?xml version="1.0" ?><svg id="Layer_1" style="enable-background:new 0 0 64 64;" version="1.1" viewBox="0 0 64 64" xml:space="preserve" xmlns="http://www.w3.org/2000/svg" xmlns:xlink="http://www.w3.org/1999/xlink"><style type="text/css">
	.st0{fill:none;stroke:#1A1A1A;stroke-width:2;stroke-linecap:round;stroke-linejoin:round;stroke-miterlimit:10;}
	.st1{fill:#1A1A1A;}
	.st2{fill:none;stroke:#000000;stroke-width:2;stroke-linecap:round;stroke-linejoin:round;stroke-miterlimit:10;}
	.st3{fill:none;stroke:#1A1A1A;stroke-width:2;stroke-linecap:round;stroke-linejoin:round;}
	.st4{fill:none;stroke:#1A1A1A;stroke-width:2;stroke-linecap:round;stroke-linejoin:round;stroke-dasharray:5.8,5.8;}
</style><g id="XMLID_43_"><polygon class="st0" points="51,27.9 52.6,29 56,26.5 32,9 32,9 32,9 8,26.5 11.4,29 13,27.9 32,14  "/><line class="st0" x1="13" x2="13" y1="33.1" y2="27.9"/><polyline class="st0" points="21.4,51 13,51 13,41.1  "/><polyline class="st0" points="51,27.9 51,51 40,51  "/><path class="st0" d="M29.5,51H40V37c0-4.4-3.6-8-8-8c-2.2,0-4.2,0.9-5.7,2.3C24.9,32.8,24,34.8,24,37v9.2"/><path class="st0" d="M21.4,51c-0.4,1.1-0.2,2.3,0.7,3.2c1.2,1.2,3.1,1.2,4.3,0c0.5-0.5,0.8-1.3,0.9-2c0.7,0,1.4-0.3,2-0.9   c0.1-0.1,0.2-0.2,0.3-0.4c0.9-1.2,0.8-2.8-0.3-3.9c-1.2-1.2-3.1-1.2-4.2,0L24,46.2l-8.1-8c1.2-1.2,1.2-3.1,0-4.2   c-0.8-0.8-1.9-1-2.9-0.8c-0.5,0.1-0.9,0.4-1.3,0.8c-0.6,0.5-0.8,1.3-0.9,2c-0.7,0-1.4,0.3-2,0.9c-1.2,1.2-1.2,3.1,0,4.2   c1.1,1.1,2.9,1.2,4.1,0.1c0,0,0.1-0.1,0.1-0.1l9,9C21.8,50.3,21.6,50.6,21.4,51z"/></g></svg>